<svg id="Component_34_1" data-name="Component 34 – 1" xmlns="http://www.w3.org/2000/svg" xmlns:xlink="http://www.w3.org/1999/xlink" width="230.117" height="47.767" viewBox="0 0 230.117 47.767">
  <defs>
    <clipPath id="clip-path">
      <rect id="Rectangle_197" data-name="Rectangle 197" width="230.117" height="47.767" fill="none"/>
    </clipPath>
  </defs>
  <g id="Group_226" data-name="Group 226" clip-path="url(#clip-path)">
    <path id="Path_33" data-name="Path 33" d="M199.359,23.417a7.838,7.838,0,0,1,1.615,1.077,5.719,5.719,0,0,1,1.759,3.448,8.21,8.21,0,0,1-.128,3.188,5.529,5.529,0,0,1-2.915,3.755,10.794,10.794,0,0,1-3.772,1.086,19.324,19.324,0,0,1-2.429.1h-7.716c-.685,0-.687,0-.687-.685q0-11.52,0-23.041c0-.061,0-.122,0-.183.014-.421.05-.466.489-.466,3.154,0,6.308-.03,9.461.022a8.333,8.333,0,0,1,4.456,1.248A5.258,5.258,0,0,1,201.9,16.5a8.132,8.132,0,0,1,0,3.193,5.187,5.187,0,0,1-2.253,3.437c-.1.065-.223.107-.284.283m-10.394,5.555q0,1.467,0,2.935c0,.122,0,.244.01.366a.25.25,0,0,0,.268.254c.092.005.183.006.275.006,1.484,0,2.968.019,4.451-.007a9.94,9.94,0,0,0,2.722-.344,2.5,2.5,0,0,0,1.856-1.9A5.775,5.775,0,0,0,198.622,28a2.705,2.705,0,0,0-2.076-2.311,6.375,6.375,0,0,0-1.76-.29q-2.639-.013-5.277-.014c-.506,0-.542.039-.544.555,0,1.009,0,2.018,0,3.027m0-10.5c0,.932,0,1.864,0,2.8,0,.51.036.544.552.545,1.544,0,3.089,0,4.634,0a6.751,6.751,0,0,0,1.276-.121,2.727,2.727,0,0,0,2.4-2.209,5.413,5.413,0,0,0-.012-2.228,2.16,2.16,0,0,0-1.635-1.735,7.848,7.848,0,0,0-2.13-.289c-1.529-.024-3.058-.011-4.588-.008-.463,0-.494.033-.5.5-.005.917,0,1.834,0,2.751" fill="#4f4f4f"/>
    <path id="Path_34" data-name="Path 34" d="M104.515,23.9V35.337c0,.73,0,.731-.735.731-.858,0-1.715,0-2.573,0-.546,0-.574-.027-.575-.569q0-4.8,0-9.6c0-.788,0-.788-.77-.788q-5.4,0-10.8,0c-.708,0-.708,0-.708.707v9.552c0,.694,0,.695-.676.7-.888,0-1.777,0-2.665,0-.475,0-.523-.054-.539-.526,0-.122,0-.244,0-.367q0-11.319,0-22.638c0-1,.085-.836.867-.844s1.562,0,2.343,0c.675,0,.675,0,.675.7q0,4.226,0,8.449c0,.7,0,.7.709.7H99.91c.72,0,.721,0,.721-.743V12.4c0-.7,0-.7.716-.7q1.287,0,2.573,0c.573,0,.6.021.6.593q0,4.638,0,9.276V23.9" fill="#4f4f4f"/>
    <path id="Path_35" data-name="Path 35" d="M228.122,36.068c-.49,0-.981-.017-1.47.005a.573.573,0,0,1-.647-.437c-.429-1.195-.881-2.382-1.325-3.572-.192-.516-.382-1.033-.576-1.549-.157-.416-.17-.428-.64-.43-.918,0-1.838,0-2.756,0h-7.03c-.123,0-.244,0-.367,0-.435.009-.454.018-.6.416-.4,1.061-.789,2.123-1.186,3.184-.241.645-.48,1.291-.726,1.934-.17.44-.177.445-.627.447-.966,0-1.931,0-2.9,0-.076,0-.153,0-.229-.008-.156-.012-.218-.1-.181-.248.028-.1.067-.2.1-.3q4.461-11.662,8.924-23.325c.185-.486.185-.49.689-.491q1.908,0,3.815,0c.5,0,.5,0,.692.49q1.234,3.215,2.461,6.431,2.19,5.724,4.382,11.448,1.025,2.681,2.047,5.361c.238.626.22.646-.431.647Zm-9.707-20.544c-.088.037-.1.118-.126.187q-1.974,5.241-3.95,10.481c-.213.564-.207.567.422.567h7.259c.664,0,.662,0,.431-.618Q220.528,21,218.6,15.866c-.045-.12-.043-.276-.189-.342" fill="#4f4f4f"/>
    <path id="Path_36" data-name="Path 36" d="M177.306,19.609c0,2.3.013,4.591-.005,6.887a11.793,11.793,0,0,1-.732,4.091,8.528,8.528,0,0,1-6.927,5.736,12.33,12.33,0,0,1-5.06-.157,8.393,8.393,0,0,1-6.009-5.132,11.825,11.825,0,0,1-.883-4.06c-.119-2.126-.044-4.253-.057-6.379-.016-2.694,0-5.387,0-8.081,0-.138-.005-.276,0-.413.022-.347.067-.4.411-.406q1.516-.012,3.032,0c.378,0,.417.052.433.427.006.138,0,.275,0,.413,0,4.408-.009,8.815.005,13.223a10.565,10.565,0,0,0,.591,3.743,5.058,5.058,0,0,0,2.4,2.848,5.831,5.831,0,0,0,2.1.612,7.114,7.114,0,0,0,3.041-.281,5.083,5.083,0,0,0,3.162-3.119,8.975,8.975,0,0,0,.614-3.413q0-6.771,0-13.544c0-.153,0-.306,0-.459.016-.4.059-.449.46-.452q1.47-.009,2.94,0c.431,0,.465.046.478.478,0,.092,0,.184,0,.276v7.162Z" fill="#4f4f4f"/>
    <path id="Path_37" data-name="Path 37" d="M112.411,23.884V12.408c0-.716,0-.717.7-.717h13.873c.68,0,.681,0,.682.693,0,.765,0,1.53,0,2.3,0,.51-.038.545-.553.545q-5.007,0-10.014,0c-.841,0-.81-.05-.809.792q0,2.662,0,5.325c0,.122,0,.245,0,.367.018.3.056.346.346.365.138.01.276,0,.414,0H126.2c.71,0,.721.011.722.714,0,.658,0,1.316,0,1.974,0,.626-.029.653-.643.653h-9.187l-.46,0c-.23,0-.333.12-.333.343,0,.092,0,.184,0,.275q0,2.938,0,5.876c0,.609.009.616.615.616h10.06c.7,0,.7,0,.7.719,0,.765,0,1.53,0,2.3,0,.482-.041.519-.532.519q-7.1,0-14.194,0c-.493,0-.529-.039-.529-.569q0-4.935,0-9.87V23.884" fill="#4f4f4f"/>
    <path id="Path_38" data-name="Path 38" d="M142.319,36.068h-8.454c-.608,0-.615-.01-.618-.615,0-.582.012-1.164-.006-1.745a1.423,1.423,0,0,1,.274-.9c1.126-1.622,2.239-3.253,3.359-4.879q2.2-3.2,4.4-6.39,2.084-3.026,4.161-6.054c.1-.142.309-.287.2-.468-.086-.148-.312-.068-.474-.068q-5.238-.006-10.475,0c-.71,0-.711,0-.712-.706,0-.689,0-1.378,0-2.066,0-.437.045-.474.47-.484.23-.006.46,0,.69,0h14.839c.739,0,.739,0,.741.739,0,.567-.005,1.133,0,1.7a1.151,1.151,0,0,1-.214.686q-2.611,3.805-5.215,7.615l-3.087,4.509q-1.828,2.67-3.655,5.344c-.092.135-.284.28-.214.431.089.189.329.095.5.095q5.949.006,11.9,0c.707,0,.716.009.718.716,0,.6,0,1.194,0,1.791,0,.748,0,.749-.731.749h-8.408" fill="#4f4f4f"/>
    <path id="Path_39" data-name="Path 39" d="M77.217,32.813c0,.474-.024.95.007,1.423a.724.724,0,0,1-.461.755,12.558,12.558,0,0,1-3.992,1.327,14.967,14.967,0,0,1-5.659-.161,10.116,10.116,0,0,1-7.6-6.528,15.187,15.187,0,0,1-.977-5.3,16.859,16.859,0,0,1,.649-5.262,10.4,10.4,0,0,1,5.258-6.486,12.132,12.132,0,0,1,4.393-1.247,15.916,15.916,0,0,1,5.91.53,13.146,13.146,0,0,1,2.013.773.713.713,0,0,1,.469.749c-.025.948-.009,1.9-.009,2.847,0,.03,0,.061,0,.091-.014.148.038.334-.137.406-.141.059-.258-.064-.37-.14a10.6,10.6,0,0,0-5.1-1.8,8.725,8.725,0,0,0-5.283,1.015,6.869,6.869,0,0,0-2.855,3.374,10.044,10.044,0,0,0-.771,3.524,15.772,15.772,0,0,0,.284,4.383,7.974,7.974,0,0,0,2.125,4,6.712,6.712,0,0,0,3.844,1.8,10.508,10.508,0,0,0,6.669-1.157,13.665,13.665,0,0,0,1.2-.77c.273-.186.385-.133.394.2.013.551,0,1.1,0,1.653Z" fill="#4f4f4f"/>
    <path id="Path_40" data-name="Path 40" d="M47.767,23.883A23.883,23.883,0,1,1,23.883,0,23.884,23.884,0,0,1,47.767,23.883" fill="#19bae5"/>
    <path id="Path_41" data-name="Path 41" d="M35.4,18.277a10.017,10.017,0,0,0-2.474-5.7,13.726,13.726,0,0,0-1.186-1.167,6.85,6.85,0,0,0-.9-.666l.223.326A11.371,11.371,0,0,1,33.118,16.6a11.177,11.177,0,0,1-.079,2.223,10.424,10.424,0,0,1-.957,3.055,5.614,5.614,0,0,1-.8,1.256c-2.905,3.394-4.866,6.811-5.435,9.476a6.06,6.06,0,0,0-.165,1.349l-.012.474H25.1c-.317,0-.576,0-.576-.01,0-.028.8-5.4.844-5.638.012-.078-.016-.026-.127.224A12.122,12.122,0,0,0,24.087,34c.007.329.015.42.037.436s.02.018-.008.008a1.549,1.549,0,0,0-.23-.012h-.194v-.553c0-.311-.01-.655-.023-.79a13.069,13.069,0,0,0-.808-3.322c-.13-.333-.315-.77-.323-.762s.032.306.082.672c.087.641.627,4.731.627,4.747s-.259.008-.576.008H22.1l-.012-.474a8.244,8.244,0,0,0-.491-2.531,25.969,25.969,0,0,0-4.906-8.047,6.315,6.315,0,0,1-1.063-1.626,10.227,10.227,0,0,1-.977-3.642,13.637,13.637,0,0,1,0-1.513,10.7,10.7,0,0,1,.762-3.145A12.622,12.622,0,0,1,16.8,10.937c.062-.088.119-.172.127-.185s.012-.024.008-.024-.5.362-.642.473a11.63,11.63,0,0,0-1.965,2.022,9.936,9.936,0,0,0-1.992,5.864,6.272,6.272,0,0,0,.382,2.229,19.911,19.911,0,0,0,2.934,5.145c.414.571,1.049,1.409,1.934,2.557a48.224,48.224,0,0,1,3.258,4.538c.2.337.474.826.474.854,0,.012-.022.022-.05.022h-.049v3.861h5.214V34.428l.195-.352a40.314,40.314,0,0,1,3.487-4.968c1.025-1.33,1.582-2.068,2-2.647a19.511,19.511,0,0,0,2.968-5.245,6.573,6.573,0,0,0,.31-2.939m-9.74,19.359H21.973V35.168h3.682Z" fill="#fff"/>
    <path id="Path_42" data-name="Path 42" d="M16.91,21.163a10.634,10.634,0,0,0,1.278,1.6,26.19,26.19,0,0,1,2.423,2.9,20.138,20.138,0,0,1,1.846,3.145l.053.119-.01-.119c-.039-.432-1.121-8.3-1.663-12.111l-.3-2.1.01-.318a2.353,2.353,0,0,1,.045-.438q.292-1.058,1.761-.613A7.31,7.31,0,0,1,23.978,14l.125.08.213-.138a4.8,4.8,0,0,1,2.059-.836.889.889,0,0,1,1.02.7,2.671,2.671,0,0,1,.06.692c-.018.235-.469,3.338-1.264,8.708-.366,2.48-.785,5.29-.8,5.414a2.053,2.053,0,0,0,.253-.448,19,19,0,0,1,1.568-2.558,25.856,25.856,0,0,1,2.455-2.923,10.633,10.633,0,0,0,2.58-4.6,7.893,7.893,0,0,0,.241-1.632,8.229,8.229,0,0,0-.92-4.162,8.859,8.859,0,0,0-1.248-1.906,5.525,5.525,0,0,0-1.059-.468,14.422,14.422,0,0,0-3.413-.446l-.16-.012-.132.4c-.308.922-1.437,4.188-1.448,4.188s-1.479-3.161-1.941-4.18a3.193,3.193,0,0,0-.2-.408c-.024,0-.586.022-1.062.05a7.551,7.551,0,0,0-3.086.686,1.164,1.164,0,0,0-.62.492,10.117,10.117,0,0,0-1.61,3.189,8.708,8.708,0,0,0,1.327,7.282" fill="#fff"/>
  </g>
</svg>
